<?xml version="1.0" encoding="UTF-8"?><svg id="b" xmlns="http://www.w3.org/2000/svg" viewBox="0 0 26.46 21.93"><defs><style>.f{fill:#fff;}</style></defs><g id="c"><g id="d"><path id="e" class="f" d="m0,10.81c.13-.51.45-.87.81-1.23C3.79,6.61,6.77,3.63,9.74.66c.88-.88,1.61-.88,2.49,0,.19.19.38.37.56.56.68.7.69,1.53,0,2.24-1.17,1.18-2.35,2.35-3.53,3.53-.61.61-1.23,1.23-1.93,1.93.25,0,.4,0,.55,0,5.6,0,11.19.02,16.79-.01,1.25,0,1.87.79,1.79,1.79-.02.25,0,.5,0,.75-.02.99-.63,1.6-1.62,1.6-5.68,0-11.35,0-17.03,0-.14,0-.28,0-.5,0,.14.15.22.25.31.34,1.7,1.7,3.4,3.39,5.1,5.09.79.79.79,1.56,0,2.36-.23.23-.46.47-.7.7-.57.54-1.38.56-1.98.05-.11-.09-.21-.2-.31-.3-2.97-2.97-5.93-5.94-8.91-8.9-.36-.36-.68-.73-.81-1.23v-.32Z"/></g></g></svg>