<?xml version="1.0" encoding="UTF-8"?><svg id="b" xmlns="http://www.w3.org/2000/svg" viewBox="0 0 26 26.07"><defs><style>.e{fill:#fff;}</style></defs><g id="c"><g id="d"><path class="e" d="m9.05,13.07c-2.91-2.72-5.23-4.86-7.51-7.04C-.06,4.49-.68,2.7,1.13.97,2.81-.64,4.51-.01,5.96,1.49c2.19,2.28,4.35,4.59,6.84,7.23,2.47-2.48,4.61-4.62,6.74-6.76,1.63-1.65,3.45-2.99,5.49-.85,1.86,1.96.73,3.75-.91,5.28-2.16,2.01-4.33,4.03-6.84,6.36,2.55,2.58,4.71,4.84,6.94,7.01,1.66,1.62,2.61,3.4.71,5.28-1.93,1.92-3.71.84-5.25-.83-2.06-2.24-4.13-4.48-6.61-7.17-2.46,2.63-4.48,4.77-6.48,6.91-1.57,1.68-3.36,3.17-5.47,1.12-2.26-2.19-.68-4.06,1.07-5.7,2.09-1.94,4.2-3.87,6.86-6.31Z"/></g></g></svg>