<?xml version="1.0" encoding="UTF-8"?><svg id="b" xmlns="http://www.w3.org/2000/svg" viewBox="0 0 20.22 20.22"><defs><style>.e{fill:#5e5e5e;}</style></defs><g id="c"><g id="d"><g><path class="e" d="m20.22,10.11c0,.36.01.73,0,1.09-.03.84-.69,1.52-1.54,1.56-.26.01-.53,0-.79,0-.26,0-.44.12-.53.37-.09.24-.03.43.14.6.16.17.33.32.49.49.64.69.65,1.64,0,2.32-.47.49-.95.97-1.45,1.45-.67.64-1.65.63-2.32,0-.17-.17-.32-.38-.52-.5-.17-.1-.43-.19-.59-.12-.16.07-.29.31-.33.5-.06.24,0,.5-.01.76-.03.9-.7,1.58-1.6,1.6-.7.01-1.41.01-2.11,0-.88-.02-1.56-.69-1.59-1.57-.01-.26.04-.54-.02-.79-.04-.19-.17-.4-.33-.51-.19-.13-.42-.05-.59.13-.18.18-.36.36-.54.53-.66.61-1.61.62-2.27,0-.52-.49-1.03-1-1.51-1.52-.58-.62-.58-1.56-.02-2.19.17-.2.37-.38.55-.57.17-.17.24-.37.14-.6-.1-.24-.28-.36-.54-.36-.25,0-.51,0-.76,0-.86-.03-1.54-.71-1.56-1.57-.02-.73-.02-1.45,0-2.18.02-.84.7-1.51,1.54-1.55.25-.01.52.04.76-.02.19-.05.4-.18.51-.34.14-.2.08-.44-.1-.63-.16-.16-.33-.32-.49-.49-.61-.65-.63-1.62-.01-2.27.48-.51.98-1.01,1.49-1.49.67-.63,1.65-.6,2.32.04.14.14.28.28.42.42.18.18.39.22.64.12.24-.1.37-.27.38-.53,0-.23,0-.46,0-.69.04-.9.71-1.57,1.61-1.58.69-.01,1.39-.01,2.08,0,.9.02,1.58.69,1.61,1.59,0,.22,0,.44,0,.66,0,.28.14.45.39.56.24.1.45.05.63-.13.17-.17.34-.35.52-.51.62-.55,1.56-.55,2.17.01.54.5,1.06,1.02,1.56,1.56.59.63.57,1.58-.02,2.22-.14.15-.29.3-.44.44-.21.19-.29.41-.19.68.11.29.34.38.63.37.2,0,.4,0,.59,0,.9.03,1.58.7,1.6,1.6,0,.35,0,.7,0,1.06Zm-1.12,0h0c0-.3,0-.59,0-.89,0-.47-.18-.64-.63-.65-.19,0-.37,0-.56,0-.74-.03-1.28-.37-1.56-1.07-.27-.68-.15-1.29.36-1.82.14-.14.28-.28.42-.42.27-.28.28-.57,0-.84-.45-.46-.9-.91-1.35-1.35-.26-.25-.55-.25-.81,0-.16.15-.31.32-.47.46-.55.49-1.17.57-1.84.28-.65-.28-.98-.79-1.01-1.49-.01-.23,0-.46,0-.69-.02-.31-.2-.5-.5-.51-.68-.01-1.36-.01-2.05,0-.32,0-.5.21-.51.53,0,.2,0,.4,0,.59-.01.75-.39,1.32-1.07,1.59-.71.28-1.33.15-1.88-.38-.13-.13-.26-.27-.4-.4-.26-.24-.53-.24-.79,0-.47.45-.92.91-1.38,1.38-.24.25-.24.53,0,.79.16.18.35.34.51.52.86.96.36,2.52-.9,2.77-.32.06-.66.04-.98.05-.36.02-.56.19-.57.54-.01.66-.01,1.32,0,1.98,0,.34.2.52.54.54.24,0,.48,0,.73,0,.71.04,1.23.37,1.51,1.04.28.67.15,1.27-.34,1.8-.16.18-.35.34-.51.52-.22.25-.23.53,0,.76.46.47.92.94,1.4,1.4.24.23.52.22.76,0,.21-.19.4-.41.61-.6.94-.82,2.45-.32,2.69.9.07.35.04.72.06,1.08.02.34.2.53.54.54.66,0,1.32.01,1.98,0,.35,0,.53-.2.54-.57,0-.25-.01-.51,0-.76.04-.68.36-1.2,1-1.46.65-.27,1.25-.17,1.78.3.19.17.36.36.54.53.27.25.55.26.82,0,.46-.44.91-.9,1.35-1.35.27-.28.26-.55,0-.84-.17-.18-.36-.35-.53-.54-.83-.95-.33-2.47.9-2.72.33-.07.68-.04,1.02-.05.38-.02.57-.19.58-.57,0-.32,0-.64,0-.96Z"/><path class="e" d="m14.42,10.05c0,2.39-1.93,4.32-4.31,4.32-2.37,0-4.29-1.93-4.29-4.3,0-2.38,1.91-4.31,4.28-4.31,2.4,0,4.32,1.91,4.33,4.3Zm-1.12,0c0-1.76-1.42-3.18-3.18-3.19-1.75,0-3.18,1.42-3.19,3.18,0,1.75,1.43,3.19,3.18,3.19,1.76,0,3.18-1.42,3.19-3.19Z"/></g></g></g></svg>