<?xml version="1.0" encoding="UTF-8"?><svg id="b" xmlns="http://www.w3.org/2000/svg" viewBox="0 0 75.53 63.73"><defs><style>.f{fill:#75a09e;}</style></defs><g id="c"><g id="d"><g id="e"><path d="m75.53,9.32c-.12.66-.24,1.31-.35,1.97-.64,3.63-1.28,7.27-1.91,10.9-.64,3.62-1.27,7.24-1.91,10.86-.66,3.78-1.32,7.55-1.99,11.33-.21,1.21-.42,2.43-.64,3.64-.48,2.65-2.91,4.31-5.56,3.82-3.6-.66-7.19-1.31-10.79-1.96-3.98-.72-7.97-1.44-11.95-2.17-2.6-.48-4.23-2.95-3.75-5.61.68-3.79,1.33-7.58,2-11.37.65-3.69,1.29-7.37,1.94-11.06.69-3.94,1.38-7.87,2.07-11.81.24-1.35.46-2.7.71-4.05.36-1.97,1.95-3.49,3.93-3.78.06,0,.13-.03.19-.04.31,0,.63,0,.94,0,.09.02.19.04.28.06,4.12.75,8.25,1.5,12.37,2.24,3.5.63,7,1.27,10.5,1.9,1.92.34,3.44,1.82,3.82,3.73.03.15.06.29.09.44,0,.31,0,.63,0,.94Zm-2.36-.28c0-1.35-.82-2.3-2-2.51-3.57-.64-7.14-1.29-10.72-1.94-4-.73-7.99-1.45-11.99-2.18-1.3-.23-2.48.57-2.73,1.86-.08.39-.14.79-.21,1.18-.62,3.54-1.24,7.09-1.87,10.63-.68,3.85-1.35,7.71-2.03,11.56-.57,3.24-1.14,6.48-1.7,9.72-.31,1.78-.64,3.56-.93,5.35-.21,1.31.65,2.46,1.95,2.69,2.49.45,4.98.9,7.47,1.35,5.09.92,10.17,1.85,15.26,2.77,1.31.24,2.51-.59,2.74-1.9.31-1.71.6-3.42.9-5.13.64-3.63,1.27-7.26,1.91-10.88.64-3.63,1.27-7.25,1.91-10.88.6-3.41,1.2-6.82,1.79-10.22.09-.54.18-1.08.25-1.46Z"/><path d="m14.04,63.73c-.17-.03-.33-.06-.5-.1-1.89-.46-3.13-1.62-3.62-3.5-2.54-9.76-5.06-19.52-7.59-29.28-.73-2.8-1.45-5.61-2.18-8.41-.07-.25-.11-.51-.16-.77,0-.31,0-.63,0-.94.05-.22.08-.45.14-.67.51-1.81,1.68-2.98,3.5-3.45,4.86-1.24,9.73-2.46,14.6-3.69.06-.01.11-.02.2-.04.02.19.03.37.04.55.04.56.06,1.13.11,1.69,0,.13-.03.17-.15.2-2.48.62-4.96,1.25-7.43,1.88-2.26.57-4.52,1.14-6.78,1.72-1.39.35-2.11,1.6-1.75,2.99,3.16,12.21,6.32,24.42,9.49,36.63.08.32.17.65.25.97.35,1.37,1.62,2.13,2.99,1.78,1.56-.39,3.12-.79,4.69-1.19,6.1-1.54,12.21-3.09,18.32-4.62.5-.12,1.03-.11,1.54-.15.68-.05,1.36-.09,2.04-.13.06,0,.13,0,.23,0-.03.08-.06.14-.09.2-.66,1.19-1.65,1.98-2.97,2.32-2.57.66-5.14,1.31-7.72,1.96-4.5,1.14-9,2.27-13.49,3.41-.91.23-1.83.44-2.75.66h-.94Z"/><path d="m40.86,4.64c-.13.77-.27,1.52-.39,2.27-.02.13-.12.12-.2.12-.67.04-1.33.08-2,.12-2.9.18-5.81.36-8.71.54-1.4.09-2.8.17-4.2.26-1.06.07-1.82.57-2.18,1.58-.11.31-.15.67-.13,1,.15,2.66.33,5.31.49,7.97.2,3.25.41,6.49.61,9.74.15,2.38.3,4.76.45,7.14.18,2.84.36,5.68.54,8.52.11,1.71.22,3.43.32,5.14.08,1.38,1.15,2.36,2.53,2.29,1.72-.1,3.44-.21,5.16-.32,2-.13,4-.25,6.01-.38.98-.06,1.96-.14,2.94-.17.37-.01.74.08,1.11.15,2.81.51,5.62,1.02,8.43,1.53.06.01.11.02.17.07-.1.01-.21.03-.31.03-3.13.2-6.27.39-9.4.59-2.84.18-5.68.35-8.52.53-1.79.11-3.57.22-5.36.34-2.49.17-4.62-1.46-5.05-3.91-.09-.53-.1-1.07-.14-1.61-.25-3.94-.5-7.89-.75-11.84-.19-3.02-.38-6.05-.57-9.07-.2-3.23-.41-6.46-.61-9.7-.15-2.32-.3-4.63-.43-6.95-.16-2.69,1.8-4.86,4.53-5.03,3.27-.2,6.54-.4,9.81-.61,1.86-.12,3.73-.23,5.59-.35.08,0,.15,0,.26,0Z"/><path class="f" d="m18.73,17.69c.01.06.02.1.03.14.04.68.08,1.36.13,2.04.01.17-.05.22-.2.26-2.25.56-4.5,1.13-6.75,1.7-.07.02-.14.04-.23.06.25,1.1.1,2.14-.49,3.1-.59.95-1.45,1.55-2.53,1.85,2.19,8.45,4.37,16.89,6.56,25.35,1.1-.24,2.14-.13,3.12.42.98.56,1.62,1.39,1.93,2.49.48-.12.95-.24,1.42-.36.45-.11.9-.23,1.35-.34.07-.02.18,0,.23.03.93.75,1.97,1.25,3.13,1.48.02,0,.05.02.11.04-.44.11-.85.22-1.26.32-1.45.37-2.91.74-4.36,1.1-1.3.33-2.54-.38-2.91-1.65-.27-.93-1.13-1.46-2.09-1.26-.65.14-1.26.11-1.85-.22-.6-.34-.97-.85-1.14-1.51-.65-2.49-1.29-4.99-1.93-7.48-1.53-5.91-3.06-11.82-4.59-17.73-.36-1.37.34-2.61,1.71-2.99.93-.26,1.5-1.15,1.28-2.1-.31-1.3.45-2.52,1.75-2.85,2.47-.63,4.94-1.25,7.41-1.87.05-.01.1-.02.16-.03Z"/><path class="f" d="m40.03,9.4c-.11.62-.21,1.21-.32,1.8-.03.19-.03.44-.14.55-.11.1-.36.05-.55.06-2.28.14-4.57.29-6.85.43-.06,0-.11.01-.19.02.03,1.12-.3,2.1-1.05,2.93-.74.82-1.68,1.24-2.8,1.35.54,8.65,1.09,17.29,1.63,25.93,2.5-.12,4.24,1.84,4.36,3.78.23-.01.46-.02.7-.04.1,0,.17,0,.22.11.4.77.92,1.45,1.56,2.03.03.02.05.06.09.11-.26.02-.49.04-.73.05-.58.04-1.15.07-1.73.1-1.26.07-2.37-.88-2.48-2.14-.09-1.02-.82-1.66-1.85-1.62-1.25.04-2.31-.8-2.47-1.99-.07-.55-.09-1.11-.12-1.67-.22-3.51-.44-7.03-.66-10.54-.18-2.82-.35-5.64-.53-8.46-.11-1.77-.2-3.55-.34-5.32-.11-1.44.79-2.42,1.83-2.64.22-.05.44-.06.66-.1.83-.17,1.39-.9,1.35-1.76-.06-1.25.85-2.34,2.09-2.46,1.16-.1,2.31-.16,3.47-.23,1.54-.1,3.09-.19,4.63-.29.06,0,.13,0,.22,0Z"/><path d="m20.41,44.21c-3.15-.33-6.15-2.94-6.31-6.77-.14-3.53,2.37-6.44,5.42-7.12,0,.04.02.08.03.13.04.7.08,1.4.13,2.1,0,.14-.03.19-.16.24-1.93.75-3.18,2.63-3.06,4.59.13,2.13,1.53,3.84,3.6,4.37.15.04.21.1.22.26.03.69.08,1.37.13,2.06,0,.04,0,.09,0,.15Z"/><path d="m37.83,21.9c-.06.37-.12.74-.19,1.1-.06.37-.14.75-.19,1.12-.02.14-.07.21-.22.24-2.15.54-3.62,2.42-3.58,4.64.03,1.61.76,2.88,2.07,3.8.13.09.17.18.14.33-.14.73-.26,1.46-.4,2.22-1.12-.51-2.04-1.23-2.76-2.2-1.13-1.5-1.6-3.2-1.38-5.07.43-3.67,3.53-6.06,6.5-6.19Z"/><path class="f" d="m66.55,10.06c-.01.14-.02.27-.04.41-.14.95.43,1.77,1.37,1.97,1.19.25,2.03,1.27,1.93,2.44-.04.57-.17,1.14-.27,1.71-.64,3.65-1.28,7.29-1.92,10.94-.6,3.39-1.19,6.79-1.79,10.18-.19,1.06-.37,2.13-.56,3.19-.23,1.28-1.42,2.12-2.7,1.92-.99-.15-1.77.39-1.98,1.38-.26,1.28-1.42,2.1-2.71,1.88-2.01-.34-4.01-.72-6.02-1.08-1.41-.26-2.82-.52-4.24-.77-1.4-.25-2.22-1.39-2.01-2.8.14-.9-.46-1.73-1.38-1.93-1.01-.22-1.64-.83-1.89-1.83-.1-.4-.04-.81.03-1.21.74-4.22,1.48-8.44,2.22-12.66.75-4.25,1.49-8.51,2.24-12.76.23-1.29,1.41-2.12,2.7-1.92.99.15,1.77-.38,1.97-1.36.28-1.32,1.42-2.13,2.75-1.89,2.58.45,5.15.93,7.72,1.39.84.15,1.69.31,2.53.46,1.19.21,2.01,1.17,2.02,2.34Zm-8.32,33.68c.69-2.39,2.25-3.48,4.72-3.29,1.5-8.55,3-17.11,4.5-25.65-2.39-.7-3.47-2.28-3.31-4.75-3.42-.62-6.84-1.24-10.25-1.86-.69,2.38-2.25,3.47-4.72,3.29-1.5,8.55-3,17.11-4.5,25.65,2.39.71,3.48,2.29,3.31,4.75,3.42.62,6.84,1.24,10.26,1.86Z"/><path d="m63.07,25.97c0,3.91-3.14,7.09-7.01,7.08-3.87,0-7-3.19-7-7.09,0-3.91,3.15-7.09,7.01-7.08,3.87.01,7,3.18,7,7.09Zm-2.36-.01c0-2.6-2.08-4.71-4.65-4.72-2.55,0-4.64,2.13-4.64,4.73,0,2.6,2.09,4.72,4.65,4.71,2.55,0,4.64-2.12,4.63-4.73Z"/></g></g></g></svg>