<?xml version="1.0" encoding="UTF-8"?><svg id="b" xmlns="http://www.w3.org/2000/svg" viewBox="0 0 35.55 26.16"><defs><style>.e{fill:#fff;}</style></defs><g id="c"><g id="d"><path class="e" d="m12.5,18.47C18.43,12.4,23.72,6.86,29.19,1.51c.94-.93,2.74-1.68,3.97-1.47,2.75.47,3.21,3.7.93,6.03-4.93,5.04-9.95,10-14.93,15-1.23,1.23-2.45,2.47-3.69,3.68-1.85,1.8-3.79,1.92-5.66.08-2.84-2.8-5.63-5.64-8.41-8.5-1.55-1.59-2.03-3.42-.31-5.13,1.74-1.72,3.56-1.2,5.1.41,1.97,2.06,3.87,4.2,6.31,6.87Z"/></g></g></svg>