<?xml version="1.0" encoding="UTF-8"?><svg id="b" xmlns="http://www.w3.org/2000/svg" viewBox="0 0 68.63 67.94"><defs><style>.d{fill:#ebebf2;}.e{fill:#75a09e;}</style></defs><g id="c"><polygon class="e" points="68.63 0 0 67.94 0 42.67 42.8 0 68.63 0"/><g><path class="d" d="m11.55,49.24c-.06.06-.09.07-.17,0l-6.07-5.94s-.05-.08,0-.13l1.33-1.31c.08-.07.1-.06.18-.05,1.95.54,6.07,1.73,7.11,2.1h0c-.27-.26-.61-.55-1.5-1.42l-3.15-3.08s-.05-.1,0-.16l.91-.89c.07-.06.12-.05.17,0l6.05,5.92c.07.06.06.11,0,.18l-1.2,1.18c-.07.06-.11.07-.19.06-1.46-.46-6.25-1.76-7.54-2.3h0c.52.44.95.84,1.81,1.69l3.16,3.09c.06.05.07.1,0,.16l-.92.9Z"/><path class="d" d="m16.56,40.29c.69.62,1.66.71,2.62-.23.43-.42.74-.87.95-1.37,0-.05.05-.06.1-.02l.79.77c.06.06.07.1.05.16-.19.52-.5,1.03-1.14,1.66-1.72,1.69-3.55,1.1-4.71-.04-1.32-1.29-1.68-3.21-.25-4.6,1.4-1.37,3.04-.82,3.94.06.26.26.47.48.55.61.03.05.03.08,0,.14-.1.16-.47.54-.94.99l-1.92,1.88Zm.6-2.18c.36-.35.48-.47.51-.52-.03-.03-.07-.07-.08-.07-.27-.27-1.07-.68-1.79.03-.65.64-.44,1.42-.06,1.95l1.41-1.38Z"/><path class="d" d="m26.46,34.66c-.07.06-.11.05-.19.02-2.66-1.53-3.66-2.2-4.22-2.56h0c.73,1.15,1.4,2.27,2.53,4.24.04.07.03.12-.03.18l-1.03,1.01c-.09.09-.12.08-.2.05l-5.75-3.21c-.07-.03-.07-.08,0-.14l1.04-1.02s.08-.06.13-.02c2.79,1.62,3.83,2.36,4.28,2.67l.02-.02c-.25-.4-.96-1.4-2.62-4.25-.05-.06-.06-.09,0-.16l1.09-1.07s.08-.05.13-.02c2.9,1.69,3.87,2.38,4.33,2.68l.02-.02c-.46-.67-1.26-1.73-2.73-4.24-.03-.05-.02-.09.03-.14l.96-.94s.09-.06.12,0l3.17,5.75c.03.08.04.11-.03.18l-1.04,1.02Z"/><path class="d" d="m29.23,27.46c-1.37-1.34-1.45-3.42.22-5.05.13-.13.26-.23.43-.37l-1.94-1.9s-.05-.08,0-.12l1.03-1.01s.07-.03.11.01l5.72,5.59c.19.18.45.41.64.56.05.05.06.07.03.14-.35.86-.85,1.56-1.42,2.11-1.37,1.34-3.22,1.59-4.81.04Zm1.65-4.45c-.17.07-.34.2-.51.37-.84.82-.94,1.97-.02,2.87,1.03,1.01,2.07.82,2.83.08.19-.19.36-.39.47-.61l-2.77-2.71Z"/><path class="d" d="m35.74,21.52c.69.62,1.66.71,2.62-.23.43-.42.74-.87.95-1.37,0-.05.05-.06.09-.02l.79.77c.06.06.07.1.05.16-.19.52-.5,1.03-1.15,1.66-1.72,1.69-3.55,1.1-4.71-.04-1.32-1.29-1.68-3.21-.25-4.6,1.4-1.37,3.04-.83,3.94.06.26.26.47.48.55.61.03.05.03.08,0,.14-.1.16-.47.54-.94.99l-1.92,1.88Zm.6-2.18c.36-.35.48-.47.51-.52-.03-.03-.07-.07-.08-.07-.27-.27-1.07-.68-1.79.03-.65.64-.45,1.42-.06,1.94l1.41-1.38Z"/><path class="d" d="m44.88,16.37s.06.07.03.12c-.18.42-.53.82-.9,1.18-1.53,1.5-3.49,1.36-4.86.03-1.4-1.37-1.4-3.41.16-4.94.47-.46.78-.67.99-.77.06-.02.1,0,.15.06l.83.83c.07.06.03.1-.02.13-.27.12-.57.32-.94.68-.86.84-.96,1.94-.05,2.82,1.03,1.01,2.18.67,2.91-.05.34-.33.61-.65.73-.9.03-.06.08-.06.11-.02l.84.82Z"/><path class="d" d="m45.27,7.12c.07-.06.12-.05.13.04.05.6.11,3.08.13,3.8,0,.02.02.02.04.04,1.24.08,3.27.23,4.59.31.07,0,.09.07.04.13l-1.3,1.27c-.07.07-.1.07-.19.06-.75-.05-2.81-.25-3.83-.34l2.07,2.03c.07.06.07.1,0,.16l-.99.97c-.07.06-.1.06-.17,0l-6.58-6.44s-.06-.09,0-.16l.99-.97s.09-.05.15,0l4,3.92c-.06-1.04-.21-3.13-.24-3.58,0-.08,0-.12.06-.17l1.07-1.05Z"/></g></g></svg>