<?xml version="1.0" encoding="UTF-8"?><svg id="b" xmlns="http://www.w3.org/2000/svg" viewBox="0 0 27.95 27.95"><defs><style>.f{fill:#e8e8e8;}</style></defs><g id="c"><g id="d"><g id="e"><g><path class="f" d="m27.95,13.97c0,.97-.79,1.76-1.76,1.76l-12.21-.27-12.21.27c-.97,0-1.76-.79-1.76-1.76s.79-1.76,1.76-1.76l12.21.26,12.21-.26c.97,0,1.76.79,1.76,1.76Z"/><path class="f" d="m13.97,27.95c-.97,0-1.76-.79-1.76-1.76l.27-12.21-.27-12.21c0-.97.79-1.76,1.76-1.76s1.76.79,1.76,1.76l-.26,12.21.26,12.21c0,.97-.79,1.76-1.76,1.76Z"/></g></g></g></g></svg>