<?xml version="1.0" encoding="UTF-8"?><svg id="b" xmlns="http://www.w3.org/2000/svg" viewBox="0 0 25.65 25.52"><defs><style>.f{fill:#75a09e;}</style></defs><g id="c"><g id="d"><g id="e"><path d="m11.29,1.78c3.57-2.67,8.58-2.3,11.75.87,3.14,3.14,3.49,8.13.81,11.75-2.85,3.85-8.44,4.77-12.35,1.98-.09.08-.18.15-.26.23.02-.03.04-.06.06-.09-.76-.73-1.52-1.45-2.29-2.19.08-.08.16-.15.25-.23-2.68-3.86-1.95-9.34,2.05-12.33Zm5.38,14.77c4.16,0,7.55-3.38,7.54-7.5-.01-4.26-3.37-7.62-7.61-7.6-4.14.02-7.5,3.4-7.49,7.55.01,4.19,3.38,7.55,7.56,7.55Z"/><path d="m10.85,17.07c-.79-.75-1.57-1.49-2.39-2.27-.03.02-.13.1-.23.18-2.34,1.96-4.66,3.95-6.81,6.12-.46.47-.86,1.02-1.19,1.59-.41.71-.23,1.44.34,2.04.45.49.94.85,1.65.78.61-.06,1.11-.37,1.54-.75.72-.64,1.42-1.32,2.07-2.03,1.67-1.83,3.3-3.69,4.94-5.53.02-.02.04-.05.09-.13Z"/><path class="f" d="m19.57,2.98c-.06.08-.16.17-.19.28-.03.1.01.23.06.32.03.06.13.08.2.12,3.5,1.97,4.15,6.77,1.3,9.59-.03.03-.06.07-.09.09-.23.18-.17.35,0,.54.18.19.31.08.45-.05,2.31-2.17,2.74-5.59,1.2-8.25-.62-1.07-1.47-1.9-2.54-2.5-.07-.04-.14-.07-.21-.11-.03-.01-.06-.02-.16-.04Z"/></g></g></g></svg>