<?xml version="1.0" encoding="UTF-8"?><svg id="b" xmlns="http://www.w3.org/2000/svg" viewBox="0 0 53.36 54.15"><defs><style>.f{fill:#75a09e;}</style></defs><g id="c"><g id="d"><g id="e"><path d="m42.44,28.04c-.63.98-1.2,1.84-1.75,2.71-.06.09-.08.21-.07.32.03,1.53.08,3.06.08,4.59,0,1.66-.99,2.65-2.65,2.66-.9,0-1.8.03-2.71,0-.5-.02-.82.08-.92.62-.05.26-.19.51-.29.75q-.45,1.05.34,1.84c.57.57,1.16,1.14,1.72,1.73.98,1.03,1,2.42,0,3.46-.97,1.01-1.95,2-2.96,2.97-1,.96-2.4.95-3.41,0-.74-.7-1.45-1.42-2.15-2.15-.29-.3-.54-.42-.93-.18-.26.17-.57.27-.86.39q-1.01.4-1.01,1.51c0,.77,0,1.53,0,2.3-.02,1.6-.99,2.58-2.57,2.59-1.33.01-2.66.01-3.99,0-1.48-.02-2.46-.98-2.48-2.46-.02-.97-.04-1.94,0-2.91.03-.53-.16-.79-.66-.89-.13-.03-.27-.06-.38-.14-1.07-.81-1.84-.39-2.56.55-.39.51-.91.94-1.38,1.39-.98.93-2.38.97-3.36.05-1.06-1.01-2.1-2.04-3.11-3.11-.89-.95-.84-2.36.05-3.31.7-.73,1.42-1.45,2.15-2.15.32-.31.46-.57.18-.97-.14-.2-.21-.45-.3-.68q-.49-1.18-1.81-1.18c-.77,0-1.53.02-2.3-.01-1.39-.06-2.35-1.04-2.37-2.44-.02-1.38-.02-2.75,0-4.13.02-1.43.97-2.41,2.42-2.46,1.04-.04,2.07-.02,3.11,0,.37,0,.59-.1.68-.47.08-.32.23-.64.36-.95q.43-.99-.36-1.78c-.57-.57-1.16-1.14-1.72-1.72-.99-1.03-1-2.43-.01-3.46.97-1.01,1.96-1.99,2.97-2.96,1.02-.98,2.44-.96,3.46.04.73.71,1.45,1.42,2.15,2.16.25.26.46.35.81.17.48-.25.98-.46,1.49-.62.37-.12.47-.32.47-.69-.02-1.01-.02-2.03,0-3.04.02-1.47,1-2.45,2.47-2.47,1.35-.02,2.71-.03,4.06,0,.5.01,1,.19,1.65.32.41-.71.9-1.51,1.34-2.33.07-.13-.02-.43-.14-.56-.53-.58-1.11-1.12-1.66-1.69-.93-.96-.92-2.17.01-3.13.76-.77,1.52-1.54,2.3-2.29.96-.93,2.17-.92,3.12,0,.52.5,1.04,1,1.52,1.54.28.31.52.31.93.21,1.13-.28,1.48-.95,1.31-2.04-.07-.44-.02-.9,0-1.35.04-1.19.83-2.06,2.03-2.12,1.19-.05,2.39-.05,3.58,0,1.19.04,2,.89,2.05,2.09.03.79.03,1.58,0,2.37-.01.37.1.55.47.69,1.35.52,1.35.53,2.35-.47.34-.33.66-.68,1.01-1,.86-.81,2.07-.83,2.93-.02.87.82,1.71,1.67,2.53,2.54.78.82.76,2.04-.02,2.88-.54.58-1.1,1.14-1.67,1.67-.28.27-.29.48-.2.86.28,1.16.95,1.53,2.08,1.34.46-.08.95-.03,1.42,0,1.11.05,1.98.87,2.01,1.98.04,1.24.04,2.48,0,3.72-.03,1.09-.91,1.92-2.03,1.96-.77.03-1.53.03-2.3,0-.43-.02-.62.14-.85.53-.6.99-.35,1.67.51,2.31.41.31.76.71,1.1,1.1.7.81.71,2-.03,2.78-.83.89-1.69,1.75-2.58,2.58-.85.8-2.08.74-2.93-.07-.29-.28-.57-.57-.86-.87-.28-.29-.55-.59-.91-.97Zm-3.28,5.78s0,0,0,0c0-.63,0-1.26,0-1.89-.01-.82-.28-1.1-1.09-1.11-1.24-.01-2.48-.02-3.72,0-.58,0-.89-.23-1.08-.79-.32-.91-.68-1.81-1.11-2.68-.28-.57-.19-.96.24-1.38.88-.84,1.73-1.71,2.58-2.58.56-.57.56-1,0-1.57-.87-.88-1.75-1.76-2.63-2.63-.6-.6-1.01-.6-1.62,0-.88.87-1.77,1.74-2.63,2.63-.39.4-.77.43-1.27.2-.87-.41-1.76-.8-2.68-1.12-.59-.2-.84-.51-.83-1.13.02-1.22.01-2.43,0-3.65,0-.84-.3-1.13-1.15-1.13-1.22,0-2.43,0-3.65,0-.88,0-1.18.3-1.18,1.17,0,1.24-.01,2.48,0,3.72,0,.53-.23.8-.73.99-.93.34-1.85.71-2.74,1.14-.53.25-.92.21-1.33-.21-.86-.89-1.74-1.76-2.63-2.63-.57-.56-.99-.56-1.57.01-.88.87-1.76,1.75-2.63,2.63-.6.61-.6.99,0,1.61.84.85,1.67,1.71,2.54,2.53.46.44.54.84.25,1.43-.42.84-.77,1.73-1.08,2.62-.2.58-.52.84-1.13.83-1.24-.02-2.48-.01-3.72,0-.75,0-1.06.32-1.07,1.08-.01,1.26-.01,2.52,0,3.79,0,.79.32,1.09,1.12,1.1,1.24.01,2.48.02,3.72,0,.59-.01.88.25,1.07.8.32.91.68,1.81,1.11,2.68.26.54.21.91-.21,1.32-.89.86-1.76,1.75-2.63,2.63-.57.58-.57.98,0,1.56.87.88,1.75,1.76,2.63,2.63.61.61,1,.61,1.61,0,.88-.87,1.76-1.74,2.63-2.63.39-.4.77-.43,1.27-.2.9.41,1.81.8,2.74,1.13.52.19.76.48.75,1.04-.02,1.26-.02,2.52,0,3.79,0,.75.33,1.06,1.08,1.07,1.24.01,2.48,0,3.72,0,.89,0,1.17-.28,1.18-1.18.01-1.22.02-2.43,0-3.65,0-.59.24-.89.8-1.08.91-.32,1.8-.7,2.68-1.11.53-.25.92-.21,1.33.21.85.88,1.71,1.73,2.58,2.58.63.63,1.02.62,1.66-.01.87-.86,1.73-1.72,2.58-2.58.59-.59.58-1.01,0-1.61-.87-.88-1.74-1.76-2.63-2.63-.37-.36-.44-.72-.22-1.21.43-.94.84-1.89,1.2-2.86.19-.51.48-.7,1.01-.69,1.24.02,2.48,0,3.71,0,.84,0,1.13-.29,1.14-1.14,0-.61,0-1.22,0-1.82Zm.57-4.44c.51-.79,1.11-1.74,1.75-2.67.52-.74.97-.76,1.6-.14.69.68,1.38,1.36,2.05,2.06.36.37.71.43,1.1.04.73-.74,1.46-1.47,2.2-2.2.39-.39.34-.73-.04-1.1-.7-.68-1.36-1.38-2.06-2.05-.44-.42-.53-.81-.23-1.38.35-.65.63-1.35.85-2.05.19-.6.55-.82,1.14-.81.92.02,1.85,0,2.77,0,.8,0,.93-.13.93-.96,0-.9,0-1.8,0-2.71,0-.78-.16-.94-.97-.94-.97,0-1.94-.01-2.91,0-.51,0-.78-.23-.95-.7-.27-.74-.55-1.48-.9-2.18-.27-.54-.2-.92.23-1.32.69-.65,1.33-1.35,2.02-2,.45-.43.5-.8.03-1.25-.7-.67-1.38-1.36-2.06-2.06-.42-.44-.79-.43-1.2,0-.69.71-1.41,1.4-2.1,2.11-.37.38-.74.41-1.22.19-.71-.34-1.44-.65-2.18-.91-.53-.18-.77-.48-.76-1.04.02-.97-.01-1.94.01-2.91.02-.64-.26-.89-.89-.88-.95.02-1.89.02-2.84,0-.63-.01-.9.26-.89.89.02.99,0,1.98,0,2.98,0,.5-.22.77-.69.94-.74.26-1.47.56-2.18.9-.53.26-.92.2-1.33-.22-.67-.7-1.37-1.37-2.05-2.06-.39-.4-.74-.45-1.15-.03-.71.73-1.43,1.44-2.15,2.15-.38.38-.39.72,0,1.1.69.68,1.36,1.39,2.06,2.05.47.44.56.87.22,1.43-.63,1.04-1.24,2.09-1.84,3.15-.14.24-.26.53-.27.8-.03.79,0,1.58,0,2.37q0,1.45,1.31,2c.21.09.42.16.61.28.32.2.55.16.82-.13.7-.74,1.44-1.43,2.13-2.17.18-.19.29-.49.31-.76.06-.65-.05-1.32.09-1.95.76-3.49,4.36-5.72,7.84-4.92,3.2.74,5.32,3.57,5.18,6.84-.11,2.54-2.2,5.85-5.76,6.06-.21.01-.47.07-.6.21-.73.79-1.41,1.63-2.15,2.41-.94.99-.96.97-.45,2.22.05.12.12.25.14.38.11.71.53.83,1.19.82,1.34-.02,2.68.06,4.18.1Zm-3.18-17.65c-2.73,0-4.98,2.19-4.95,4.75,0,.5.09.79.66.86.29.04.61.22.82.44,1.21,1.23,2.4,2.49,3.6,3.74.1.1.26.23.37.21.57-.09,1.19-.13,1.7-.36,2.18-.99,3.31-3.41,2.77-5.72-.54-2.29-2.6-3.91-4.96-3.91Z"/><path class="f" d="m28.43,33.84c-.02,4.45-3.7,8.11-8.12,8.06-4.53-.05-8.09-3.71-8.04-8.27.05-4.35,3.75-7.96,8.12-7.92,4.48.04,8.06,3.67,8.04,8.13Zm-8.08,6.5c3.63,0,6.58-2.97,6.56-6.59-.02-3.59-2.99-6.51-6.59-6.5-3.6.02-6.52,2.95-6.51,6.57,0,3.6,2.94,6.53,6.54,6.52Z"/></g></g></g></svg>