<?xml version="1.0" encoding="UTF-8"?><svg id="b" xmlns="http://www.w3.org/2000/svg" viewBox="0 0 38.43 38.23"><defs><style>.f{fill:#75a09e;}</style></defs><g id="c"><g id="d"><g id="e"><path class="f" d="m23.43,7.64c1.54-.59,3.03-1.16,4.53-1.73.28-.1.37-.23.36-.55C28.18,2.51,30.3.15,33.11,0c2.79-.14,5.16,2.02,5.31,4.86.11,2.07-1.21,4.11-3.16,4.89-2.04.81-4.34.27-5.74-1.41-.3-.35-.52-.38-.92-.22-1.29.52-2.59,1.01-3.89,1.49-.33.12-.47.26-.45.66.11,2.18-1.2,4.14-3.24,4.94-1.98.77-4.27.21-5.63-1.44-.31-.38-.56-.4-.97-.23-1.29.52-2.59,1.02-3.89,1.5-.32.12-.45.24-.43.61.13,2.72-1.86,5.03-4.54,5.3-2.65.27-5.1-1.62-5.49-4.24-.41-2.73,1.3-5.23,4.01-5.75,1.91-.37,3.56.21,4.84,1.7.26.3.44.38.81.22,1.32-.54,2.66-1.03,4-1.53.3-.11.46-.22.44-.61-.1-2.22,1.19-4.19,3.21-4.96,2.08-.79,4.31-.2,5.76,1.52.09.1.17.2.29.34Zm9.92.17c1.5,0,2.74-1.2,2.76-2.7.03-1.5-1.24-2.78-2.75-2.79-1.49,0-2.74,1.22-2.76,2.72-.03,1.52,1.21,2.77,2.75,2.78ZM5.02,18.65c1.52.02,2.78-1.21,2.8-2.74.02-1.49-1.2-2.73-2.71-2.75-1.54-.02-2.79,1.2-2.8,2.72,0,1.49,1.22,2.74,2.71,2.77Zm14.21-5.43c1.52,0,2.76-1.27,2.74-2.79-.02-1.49-1.26-2.7-2.77-2.7-1.49,0-2.73,1.23-2.74,2.73-.02,1.51,1.24,2.77,2.77,2.76Z"/><path d="m28.18,26.19c0-2.76,0-5.53,0-8.29,0-2.31,1.33-3.64,3.63-3.65,1.06,0,2.13,0,3.19,0,2.01.01,3.4,1.41,3.41,3.45.01,3.67,0,7.34,0,11.01,0,1.95,0,3.9,0,5.86,0,2.31-1.33,3.65-3.62,3.65-1.04,0-2.09,0-3.13,0-2.06,0-3.45-1.38-3.47-3.46-.02-2.86,0-5.72,0-8.58Zm2.31.03c0,2.82,0,5.64,0,8.46,0,.89.35,1.23,1.23,1.24,1.06,0,2.13,0,3.19,0,.81,0,1.18-.36,1.18-1.17,0-5.68,0-11.36,0-17.04,0-.8-.37-1.14-1.19-1.15-1,0-2.01,0-3.01,0-1.08,0-1.39.3-1.39,1.37,0,2.76,0,5.53,0,8.29Z"/><path d="m14.11,28.94c0-1.89,0-3.79,0-5.68,0-2.09,1.36-3.45,3.43-3.47,1.16,0,2.32-.01,3.48,0,1.89.02,3.29,1.42,3.29,3.31.01,3.92.01,7.84,0,11.76,0,1.86-1.4,3.26-3.25,3.29-1.2.02-2.4.02-3.59,0-1.98-.03-3.34-1.4-3.35-3.37-.01-1.95,0-3.9,0-5.85Zm2.31.03h0c0,1.91,0,3.82,0,5.73,0,.79.34,1.14,1.12,1.15,1.1.01,2.2.01,3.3,0,.83,0,1.17-.34,1.17-1.16,0-3.8,0-7.61,0-11.41,0-.85-.34-1.18-1.2-1.18-1.04,0-2.09,0-3.13,0-.93,0-1.26.32-1.26,1.25,0,1.87,0,3.75,0,5.62Z"/><path d="m10.24,31.65c0,1.02.01,2.05,0,3.07-.02,2.03-1.42,3.4-3.45,3.41-1.16,0-2.32,0-3.47,0-1.77-.02-3.2-1.27-3.26-3.03-.08-2.27-.08-4.56,0-6.83.06-1.71,1.44-2.98,3.15-3.02,1.25-.03,2.51-.03,3.76,0,1.9.05,3.24,1.43,3.27,3.34.01,1.02,0,2.05,0,3.07Zm-7.91,0c0,.95,0,1.89,0,2.84,0,1.02.3,1.32,1.3,1.33,1.06,0,2.12,0,3.18,0,.74,0,1.11-.37,1.11-1.11.01-2.01.01-4.01,0-6.02,0-.81-.37-1.15-1.19-1.15-1.08,0-2.16,0-3.24,0-.82,0-1.16.34-1.17,1.16-.01.98,0,1.97,0,2.95Z"/></g></g></g></svg>