<?xml version="1.0" encoding="UTF-8"?><svg id="b" xmlns="http://www.w3.org/2000/svg" viewBox="0 0 24.33 29.43"><defs><style>.e{fill:#75a09e;}</style></defs><g id="c"><g id="d"><path class="e" d="m24.33,5.91c-.16.4-.36.76-.74.99-.6.35-1.32.28-1.84-.22-.48-.46-.93-.95-1.45-1.47-.01.16-.03.25-.03.33,0,1.01-.02,2.03,0,3.04.08,2.83-1.18,4.97-3.41,6.6-1.36,1-2.91,1.56-4.55,1.89-1.49.3-2.83.92-3.91,2.01-.88.89-1.34,1.94-1.32,3.21.03,1.73-.02,3.47.02,5.2.02.95-.29,1.62-1.21,1.94h-.63c-.58-.22-1.03-.56-1.17-1.21-.03-.15-.04-.31-.04-.47,0-1.74.03-3.49,0-5.23-.07-2.85,1.19-4.99,3.43-6.62,1.35-.99,2.89-1.54,4.52-1.88,1.67-.34,3.16-1.06,4.27-2.41.65-.79.98-1.68.97-2.71-.01-1.2,0-2.4,0-3.69-.49.49-.91.94-1.36,1.36-.2.19-.44.37-.7.47-.65.24-1.37-.03-1.74-.61-.37-.57-.33-1.31.13-1.82.41-.45.86-.87,1.29-1.31.92-.92,1.83-1.84,2.75-2.76.7-.7,1.59-.7,2.3,0,1.3,1.3,2.61,2.59,3.89,3.91.23.23.36.56.54.84v.63Z"/><path d="m18.44,29.43c-.58-.22-1.03-.56-1.17-1.21-.03-.15-.04-.31-.04-.47,0-1.81-.02-3.61,0-5.42.02-1.37-.49-2.5-1.49-3.39-.51-.46-1.11-.83-1.61-1.2.98-.47,2.04-.97,3.16-1.5,1.54,1.25,2.65,2.86,2.9,4.96.09.75.06,1.52.07,2.28,0,1.34-.03,2.68.01,4.02.03.95-.29,1.62-1.21,1.94h-.63Z"/><path d="m3.97,5.25c-.47.48-.93.98-1.42,1.44-.46.45-1.11.54-1.67.28C.33,6.72-.03,6.14,0,5.52c.02-.38.16-.72.44-.99C1.79,3.17,3.15,1.8,4.52.45c.62-.61,1.51-.6,2.13.01,1.36,1.34,2.71,2.69,4.05,4.06.62.63.6,1.56-.01,2.16-.6.59-1.51.58-2.14-.02-.47-.45-.93-.92-1.4-1.38,0,0-.02,0-.06,0,0,.11,0,.22,0,.33,0,.98.04,1.97,0,2.95-.08,1.79.72,3.1,2.11,4.11.35.25.72.46,1.03.66-1.02.48-2.09.99-3.21,1.52-1.2-.96-2.19-2.19-2.64-3.78-.2-.7-.29-1.45-.32-2.18-.05-1.2-.01-2.4-.01-3.61-.03-.01-.05-.03-.08-.04Z"/></g></g></svg>