<?xml version="1.0" encoding="UTF-8"?><svg id="b" xmlns="http://www.w3.org/2000/svg" viewBox="0 0 27.48 31.89"><defs><style>.f{fill:#75a09e;}</style></defs><g id="c"><g id="d"><g id="e"><path d="m8.86,2.86C9.14.47,9.67,0,11.94,0c1.24,0,2.47,0,3.71,0,2.2,0,2.76.51,3,2.85,1.53,0,3.1-.11,4.64.04.94.1,1.97.43,2.74.97,1.32.92,1.66,2.4,1.36,3.94-.09.46-.48,1.08-.88,1.23-.75.28-.79.8-.86,1.4-.7,6.1-1.4,12.21-2.08,18.31-.27,2.43-1.03,3.15-3.46,3.15-4.31,0-8.62,0-12.92,0-2.04,0-2.89-.69-3.13-2.7-.73-6.13-1.43-12.27-2.13-18.41-.09-.75-.14-1.36-1.01-1.83C-.28,8.3-.05,6.98.21,5.87c.41-1.76,1.98-2.97,3.79-3,1.6-.03,3.2,0,4.86,0Zm-5.32,6.55c0,.28-.02.44,0,.61.73,6.37,1.47,12.74,2.2,19.12.09.79.51,1.05,1.28,1.04,4.44-.02,8.89-.04,13.33,0,1,.01,1.35-.37,1.45-1.31.48-4.38,1.02-8.76,1.52-13.14.24-2.08.46-4.17.7-6.32H3.54Zm10.24-1.74c3.67,0,7.34-.03,11.01.02.93.01,1.08-.37.95-1.14-.2-1.16-1.12-1.97-2.39-2.02-1.1-.04-2.2,0-3.3,0-5.17,0-10.34,0-15.51,0-1.49,0-2.41.64-2.71,1.87-.25,1.04-.09,1.27.95,1.27,3.67,0,7.34,0,11.01,0Zm3-5.03c.17-.67-.05-.95-.68-.94-1.57.01-3.13.01-4.7,0-.65,0-.81.32-.65.94h6.03Z"/><path class="f" d="m13.9,26.92c1.94,0,3.88,0,5.81,0,.63,0,1.3,0,1.28.86-.01.87-.7.82-1.32.82-3.91,0-7.82,0-11.73,0-.6,0-1.22-.02-1.24-.81-.02-.85.63-.88,1.27-.88,1.97,0,3.94,0,5.91,0Z"/><path d="m14.54,18.38c0,1.67,0,3.33,0,5,0,.63-.13,1.19-.88,1.18-.69,0-.85-.55-.85-1.13,0-3.4,0-6.8,0-10.2,0-.58.14-1.12.84-1.13.76-.01.89.55.89,1.17,0,1.7,0,3.4,0,5.1Z"/><path d="m17.74,18.24c0-1.67,0-3.34,0-5.01,0-.6.14-1.11.84-1.12.71,0,.85.51.85,1.1,0,3.41,0,6.82,0,10.23,0,.59-.13,1.11-.84,1.12-.71,0-.85-.51-.85-1.1,0-1.74,0-3.48,0-5.21Z"/><path d="m8.1,18.35c0-1.7,0-3.41,0-5.11,0-.59.11-1.11.82-1.13.71-.02.86.49.86,1.09,0,3.41,0,6.82,0,10.23,0,.59-.11,1.12-.82,1.13-.79,0-.86-.57-.86-1.19,0-1.67,0-3.34,0-5.01Z"/></g></g></g></svg>