<?xml version="1.0" encoding="UTF-8"?><svg id="b" xmlns="http://www.w3.org/2000/svg" viewBox="0 0 26.44 21.23"><defs><style>.e{fill:#3f3f3f;}</style></defs><g id="c"><g id="d"><path class="e" d="m0,10.47c1.44-2.26,2.93-2.42,4.85-.48,1.29,1.29,2.54,2.62,3.88,4.02.51-.47.88-.78,1.22-1.12,3.96-3.93,7.92-7.87,11.88-11.8,1.19-1.18,2.48-1.39,3.56-.63,1.37.98,1.42,2.64.05,4.01-3.95,3.95-7.92,7.87-11.87,11.81-1.52,1.52-3.03,3.05-4.91,4.96-.68-.85-1.25-1.67-1.93-2.39C4.51,16.49,2.25,14.17,0,11.84c0-.46,0-.91,0-1.37Z"/></g></g></svg>